<svg width="24" height="24" viewBox="0 0 24 24" fill="none" xmlns="http://www.w3.org/2000/svg">
<circle cx="12" cy="12" r="12" fill="#ECD5FE"/>
<path d="M7.34502 8.48258C6.60419 9.46258 6.16669 10.6817 6.16669 12.0001C6.16669 15.2201 8.78002 17.8334 12 17.8334C15.22 17.8334 17.8334 15.2201 17.8334 12.0001C17.8334 8.78008 15.22 6.16675 12 6.16675" stroke="#AC228E" stroke-width="0.875" stroke-linecap="round" stroke-linejoin="round"/>
<path d="M7.91669 12.0001C7.91669 14.2576 9.74252 16.0834 12 16.0834C14.2575 16.0834 16.0834 14.2576 16.0834 12.0001C16.0834 9.74258 14.2575 7.91675 12 7.91675" stroke="#AC228E" stroke-width="0.875" stroke-linecap="round" stroke-linejoin="round"/>
<path d="M12 14.3334C13.2892 14.3334 14.3333 13.2892 14.3333 12.0001C14.3333 10.7109 13.2892 9.66675 12 9.66675" stroke="#AC228E" stroke-width="0.875" stroke-linecap="round" stroke-linejoin="round"/>
</svg>
